<?xml version="1.0" encoding="UTF-8"?><svg id="a" xmlns="http://www.w3.org/2000/svg" viewBox="0 0 53 53"><defs><style>.b{stroke:#00615a;}.b,.c{fill:none;stroke-width:2px;}.d{fill:#bfd730;}.e{fill:#ccebe9;}.f{fill:#00615a;}.c{stroke:#fff;}</style></defs><g><path class="e" d="M26.54,53.28c14.64,0,26.5-11.87,26.5-26.5S41.17,.28,26.54,.28,.04,12.14,.04,26.78s11.86,26.5,26.5,26.5"/><path class="f" d="M26.54,46.79c11.05,0,20.01-8.96,20.01-20.01S37.59,6.77,26.54,6.77,6.53,15.73,6.53,26.78s8.96,20.01,20.01,20.01"/></g><polyline class="c" points="17.07 21.25 14.21 21.25 14.21 38.27 31.23 38.27 31.23 35.24"/><polyline class="c" points="34.58 32.21 37.44 32.21 37.44 15.19 20.43 15.19 20.43 18.22"/><rect class="d" x="19.75" y="20.58" width="12.15" height="12.3"/><line class="b" x1="25.83" y1="30.04" x2="25.83" y2="23.42"/><line class="b" x1="22.51" y1="26.73" x2="29.14" y2="26.73"/></svg>