<?xml version="1.0" encoding="UTF-8"?><svg id="a" xmlns="http://www.w3.org/2000/svg" viewBox="0 0 53 53"><defs><style>.b{fill:#d0e1f0;}.c{stroke:#003c7e;}.c,.d{fill:none;stroke-width:2px;}.e{fill:#003c7e;}.f{fill:#f2cb4b;}.d{stroke:#fff;}</style></defs><g><path class="b" d="M26.54,52.8c14.64,0,26.5-11.87,26.5-26.5S41.17-.2,26.54-.2,.04,11.67,.04,26.3s11.86,26.5,26.5,26.5"/><path class="e" d="M26.54,46.31c11.05,0,20.01-8.96,20.01-20.01S37.59,6.3,26.54,6.3,6.53,15.25,6.53,26.3s8.96,20.01,20.01,20.01"/></g><polyline class="d" points="17.07 20.78 14.21 20.78 14.21 37.79 31.23 37.79 31.23 34.77"/><polyline class="d" points="34.58 31.73 37.44 31.73 37.44 14.72 20.43 14.72 20.43 17.74"/><rect class="f" x="19.75" y="20.11" width="12.15" height="12.3"/><line class="c" x1="25.83" y1="29.57" x2="25.83" y2="22.94"/><line class="c" x1="22.51" y1="26.25" x2="29.14" y2="26.25"/></svg>