<?xml version="1.0" encoding="UTF-8"?><svg id="a" xmlns="http://www.w3.org/2000/svg" viewBox="0 0 53 53"><defs><style>.b{fill:#fff;}.c{fill:none;stroke:#bfd730;stroke-width:4px;}.d{fill:#ccebe9;}.e{fill:#00615a;}</style></defs><g><path class="d" d="M26.23,53.28c14.64,0,26.5-11.87,26.5-26.5S40.87,.28,26.23,.28-.27,12.14-.27,26.78s11.86,26.5,26.5,26.5"/><path class="e" d="M26.23,46.79c11.05,0,20.01-8.96,20.01-20.01S37.28,6.77,26.23,6.77,6.22,15.73,6.22,26.78s8.96,20.01,20.01,20.01"/></g><polygon class="b" points="14.92 15.47 23.6 15.47 23.6 18.05 17.32 18.05 17.32 35.16 34.8 35.16 34.8 28.54 37.19 28.54 37.19 37.74 14.93 37.74 14.92 15.47"/><polyline class="c" points="35.17 26.61 35.17 17.49 26.05 17.49"/><line class="c" x1="34.56" y1="18.28" x2="21.78" y2="31.06"/></svg>