<?xml version="1.0" encoding="UTF-8"?><svg id="a" xmlns="http://www.w3.org/2000/svg" viewBox="0 0 53 53"><defs><style>.b{fill:#fff;}.c{fill:#bfd730;}.d{fill:#ccebe9;}.e{fill:#00615a;}</style></defs><g><path class="d" d="M26.43,53.28c14.64,0,26.5-11.87,26.5-26.5S41.07,.28,26.43,.28-.07,12.14-.07,26.78s11.86,26.5,26.5,26.5"/><path class="e" d="M26.43,46.79c11.05,0,20.01-8.96,20.01-20.01S37.48,6.77,26.43,6.77,6.43,15.73,6.43,26.78s8.96,20.01,20.01,20.01"/></g><path class="b" d="M26.37,21.84h-3.02v-3.02h3.02v3.02Zm-4.03-1.68h-3.02v-3.02h3.02v3.02Zm-1.01,2.35h3.02v3.02h-3.02v-3.02Zm1.34,10.07h3.02v3.02h-3.02v-3.02Zm6.71-13.09v-3.02h-3.36v-2.4c-1.54-.22-3.58-.2-5.71,.72-4.36,1.89-5.04,4.57-5.04,7.05,0,2.04,.34,4.36-1.68,5.37-1.01,1.34-.34,2.01,.34,2.35,.67,.34,1.34,1.34,1.34,3.02s0,2.69,2.69,2.69h2.01s3,.14,3.34,4.5h9.13l-.05-3.5h-3.02v-3.02h-3.02v-3.02h-3.02v-3.02h3.02v-3.02h3.02v-3.02"/><rect class="c" x="26.37" y="27.21" width="3.02" height="3.02"/><rect class="c" x="29.39" y="22.51" width="3.02" height="3.02"/><rect class="c" x="32.41" y="27.21" width="3.02" height="3.02"/><rect class="c" x="32.74" y="33.18" width="3.02" height="3.02"/><rect class="c" x="37.28" y="21.16" width="3.02" height="3.02"/><rect class="c" x="32.24" y="18.48" width="3.02" height="3.02"/><rect class="c" x="23.35" y="18.82" width="3.02" height="3.02"/><rect class="c" x="21.33" y="22.51" width="3.02" height="3.02"/></svg>