<?xml version="1.0" encoding="UTF-8"?><svg id="a" xmlns="http://www.w3.org/2000/svg" viewBox="0 0 53 53"><defs><style>.b{fill:#bfd730;}.c{stroke:#3b227b;}.c,.d{fill:none;stroke-width:2px;}.e{fill:#dfdbea;}.f{fill:#3b227b;}.d{stroke:#fff;}</style></defs><g><path class="e" d="M26.54,53.17c14.64,0,26.5-11.87,26.5-26.5S41.17,.17,26.54,.17,.04,12.03,.04,26.67s11.86,26.5,26.5,26.5"/><path class="f" d="M26.54,46.68c11.05,0,20.01-8.96,20.01-20.01S37.59,6.66,26.54,6.66,6.53,15.62,6.53,26.67s8.96,20.01,20.01,20.01"/></g><polyline class="d" points="17.78 21.19 14.92 21.19 14.92 38.21 31.94 38.21 31.94 35.18"/><polyline class="d" points="35.29 32.15 38.15 32.15 38.15 15.13 21.14 15.13 21.14 18.16"/><rect class="b" x="20.46" y="20.52" width="12.15" height="12.3"/><line class="c" x1="26.54" y1="29.98" x2="26.54" y2="23.36"/><line class="c" x1="23.22" y1="26.67" x2="29.85" y2="26.67"/></svg>