<?xml version="1.0" encoding="UTF-8"?><svg id="a" xmlns="http://www.w3.org/2000/svg" viewBox="0 0 53 53"><defs><style>.b{fill:#fff;}.c{fill:none;stroke:#bfd730;stroke-width:4px;}.d{fill:#dfdbea;}.e{fill:#3b227b;}</style></defs><g><path class="d" d="M26.23,53.17c14.64,0,26.5-11.87,26.5-26.5S40.87,.17,26.23,.17-.27,12.03-.27,26.67s11.86,26.5,26.5,26.5"/><path class="e" d="M26.23,46.68c11.05,0,20.01-8.96,20.01-20.01S37.28,6.66,26.23,6.66,6.22,15.62,6.22,26.67s8.96,20.01,20.01,20.01"/></g><polygon class="b" points="14.92 15.36 23.6 15.36 23.6 17.94 17.32 17.94 17.32 35.05 34.8 35.05 34.8 28.43 37.19 28.43 37.19 37.63 14.93 37.63 14.92 15.36"/><polyline class="c" points="35.17 26.5 35.17 17.38 26.05 17.38"/><line class="c" x1="34.56" y1="18.17" x2="21.78" y2="30.95"/></svg>