<?xml version="1.0" encoding="UTF-8"?><svg id="a" xmlns="http://www.w3.org/2000/svg" viewBox="0 0 53 53"><defs><style>.b{fill:#96171a;}.c{fill:#f4d3d5;}.d{fill:#bfd730;}.e{stroke:#96171a;}.e,.f{fill:none;stroke-width:2px;}.f{stroke:#fff;}</style></defs><g><path class="c" d="M26.5,53c14.64,0,26.5-11.87,26.5-26.5S41.14,0,26.5,0,0,11.86,0,26.5s11.86,26.5,26.5,26.5"/><path class="b" d="M26.5,46.51c11.05,0,20.01-8.96,20.01-20.01S37.55,6.49,26.5,6.49,6.49,15.45,6.49,26.5s8.96,20.01,20.01,20.01"/></g><polyline class="f" points="17.03 20.97 14.18 20.97 14.18 37.99 31.19 37.99 31.19 34.96"/><polyline class="f" points="34.55 31.93 37.41 31.93 37.41 14.91 20.39 14.91 20.39 17.94"/><rect class="d" x="19.72" y="20.3" width="12.15" height="12.3"/><line class="e" x1="25.79" y1="29.76" x2="25.79" y2="23.14"/><line class="e" x1="22.48" y1="26.45" x2="29.1" y2="26.45"/></svg>