<?xml version="1.0" encoding="UTF-8"?><svg id="a" xmlns="http://www.w3.org/2000/svg" viewBox="0 0 53 53"><defs><style>.b{fill:#96171a;}.c{fill:#fff;}.d{fill:none;stroke:#bfd730;stroke-width:4px;}.e{fill:#f4d3d5;}</style></defs><g><path class="e" d="M26.5,53c14.64,0,26.5-11.87,26.5-26.5S41.14,0,26.5,0,0,11.86,0,26.5s11.86,26.5,26.5,26.5"/><path class="b" d="M26.5,46.51c11.05,0,20.01-8.96,20.01-20.01S37.55,6.49,26.5,6.49,6.49,15.45,6.49,26.5s8.96,20.01,20.01,20.01"/></g><polygon class="c" points="15.19 15.19 23.87 15.19 23.87 17.77 17.59 17.77 17.59 34.88 35.07 34.88 35.07 28.26 37.46 28.26 37.46 37.46 15.2 37.46 15.19 15.19"/><polyline class="d" points="35.44 26.33 35.44 17.21 26.32 17.21"/><line class="d" x1="34.83" y1="18" x2="22.05" y2="30.78"/></svg>