<?xml version="1.0" encoding="UTF-8"?><svg id="a" xmlns="http://www.w3.org/2000/svg" viewBox="0 0 53 53"><defs><style>.b{fill:#96171a;}.c{fill:#fff;}.d{fill:#f4d3d5;}.e{fill:#bfd730;}</style></defs><g><path class="d" d="M26.5,53c14.64,0,26.5-11.87,26.5-26.5S41.14,0,26.5,0,0,11.86,0,26.5s11.86,26.5,26.5,26.5"/><path class="b" d="M26.5,46.51c11.05,0,20.01-8.96,20.01-20.01S37.55,6.49,26.5,6.49,6.49,15.45,6.49,26.5s8.96,20.01,20.01,20.01"/></g><path class="c" d="M26.43,21.56h-3.02v-3.02h3.02v3.02Zm-4.03-1.68h-3.02v-3.02h3.02v3.02Zm-1.01,2.35h3.02v3.02h-3.02v-3.02Zm1.34,10.07h3.02v3.02h-3.02v-3.02Zm6.71-13.09v-3.02h-3.36v-2.4c-1.54-.22-3.58-.2-5.71,.72-4.36,1.89-5.04,4.57-5.04,7.05,0,2.04,.34,4.36-1.68,5.37-1.01,1.34-.34,2.01,.34,2.35,.67,.34,1.34,1.34,1.34,3.02s0,2.69,2.69,2.69h2.01s3,.14,3.34,4.5h9.13l-.05-3.5h-3.02v-3.02h-3.02v-3.02h-3.02v-3.02h3.02v-3.02h3.02v-3.02"/><rect class="e" x="26.43" y="26.93" width="3.02" height="3.02"/><rect class="e" x="29.46" y="22.23" width="3.02" height="3.02"/><rect class="e" x="32.48" y="26.93" width="3.02" height="3.02"/><rect class="e" x="32.81" y="32.9" width="3.02" height="3.02"/><rect class="e" x="37.34" y="20.89" width="3.02" height="3.02"/><rect class="e" x="32.31" y="18.2" width="3.02" height="3.02"/><rect class="e" x="23.41" y="18.53" width="3.02" height="3.02"/><rect class="e" x="21.4" y="22.23" width="3.02" height="3.02"/><rect class="e" x="29.46" y="13.16" width="3.02" height="3.02"/></svg>