<?xml version="1.0" encoding="UTF-8"?><svg id="a" xmlns="http://www.w3.org/2000/svg" viewBox="0 0 53 53"><defs><style>.b{fill:#fff;}.c{fill:none;stroke:#f2cb4b;stroke-miterlimit:10;stroke-width:4px;}.d{fill:#d0e1f0;}.e{fill:#003c7e;}</style></defs><g><path class="d" d="M26.23,52.8c14.64,0,26.5-11.87,26.5-26.5S40.87-.2,26.23-.2-.27,11.67-.27,26.3s11.86,26.5,26.5,26.5"/><path class="e" d="M26.23,46.31c11.05,0,20.01-8.96,20.01-20.01S37.28,6.3,26.23,6.3,6.22,15.25,6.22,26.3s8.96,20.01,20.01,20.01"/></g><polygon class="b" points="14.92 14.99 23.6 14.99 23.6 17.58 17.32 17.58 17.32 34.68 34.8 34.68 34.8 28.06 37.19 28.06 37.19 37.27 14.93 37.27 14.92 14.99"/><polyline class="c" points="35.17 26.13 35.17 17.02 26.05 17.02"/><line class="c" x1="34.56" y1="17.8" x2="21.78" y2="30.58"/></svg>